<?xml version="1.0" encoding="iso-8859-1"?>
<!-- Generator: Adobe Illustrator 19.0.0, SVG Export Plug-In . SVG Version: 6.00 Build 0)  -->
<svg version="1.1" id="Capa_1" xmlns="http://www.w3.org/2000/svg" xmlns:xlink="http://www.w3.org/1999/xlink" x="0px" y="0px"
	 viewBox="0 0 460 460" fill="#FFFFFF" xml:space="preserve">
<g id="XMLID_469_">
	<g id="XMLID_476_">
		<g>
			<path d="M350,180c-27.57,0-50,22.43-50,50s22.43,50,50,50s50-22.43,50-50S377.57,180,350,180z M350,250c-11.028,0-20-8.972-20-20
				s8.972-20,20-20s20,8.972,20,20S361.028,250,350,250z"/>
		</g>
	</g>
	<g id="XMLID_486_">
		<g>
			<path d="M110,180c-27.57,0-50,22.43-50,50s22.43,50,50,50s50-22.43,50-50S137.57,180,110,180z M110,250c-11.028,0-20-8.972-20-20
				s8.972-20,20-20s20,8.972,20,20S121.028,250,110,250z"/>
		</g>
	</g>
	<g id="XMLID_496_">
		<g>
			<path d="M350,120c-29.164,0-55.709,11.412-75.416,30H260l-10-20h-40l-10,20h-14.584c-19.707-18.588-46.252-30-75.416-30
				C49.346,120,0,169.346,0,230s49.346,110,110,110h240c60.654,0,110-49.346,110-110S410.654,120,350,120z M110,310
				c-44.112,0-80-35.888-80-80s35.888-80,80-80s80,35.888,80,80S154.112,310,110,310z M350,310c-44.112,0-80-35.888-80-80
				s35.888-80,80-80s80,35.888,80,80S394.112,310,350,310z"/>
		</g>
	</g>
</g>
<g>
</g>
<g>
</g>
<g>
</g>
<g>
</g>
<g>
</g>
<g>
</g>
<g>
</g>
<g>
</g>
<g>
</g>
<g>
</g>
<g>
</g>
<g>
</g>
<g>
</g>
<g>
</g>
<g>
</g>
</svg>
